<?xml version="1.0" standalone="no"?>
<!DOCTYPE svg PUBLIC "-//W3C//DTD SVG 20010904//EN"
 "http://www.w3.org/TR/2001/REC-SVG-20010904/DTD/svg10.dtd">
<svg version="1.0" xmlns="http://www.w3.org/2000/svg"
 width="3078.000000pt" height="1686.000000pt" viewBox="0 0 3078.000000 1686.000000"
 preserveAspectRatio="xMidYMid meet">

<g transform="translate(0.000000,1686.000000) scale(0.100000,-0.100000)"
fill="#000000" stroke="none">
<path d="M26900 11535 c-333 -13 -821 -30 -1085 -39 -465 -16 -592 -20 -855
-31 -69 -3 -197 -7 -285 -10 -301 -10 -2487 -86 -3150 -110 -77 -2 -207 -7
-290 -10 -950 -35 -1576 -57 -1840 -65 -176 -5 -369 -12 -430 -15 -60 -3 -247
-10 -415 -15 -379 -12 -579 -19 -740 -25 -69 -3 -325 -12 -570 -20 -585 -20
-2098 -73 -2270 -80 -281 -10 -1642 -58 -2705 -95 -556 -19 -682 -23 -1005
-35 -80 -3 -343 -12 -585 -20 -808 -28 -2410 -85 -2435 -88 -23 -2 -24 -5 -25
-77 l0 -75 -185 -7 c-102 -4 -576 -21 -1055 -38 -478 -16 -928 -32 -1000 -35
-71 -3 -197 -7 -280 -10 -82 -3 -337 -12 -565 -20 -1049 -37 -1295 -46 -1585
-55 -170 -6 -350 -12 -400 -15 -49 -2 -196 -7 -325 -10 -129 -3 -262 -8 -295
-10 -33 -3 -213 -10 -400 -15 -236 -8 -358 -15 -400 -26 -179 -44 -317 -169
-377 -341 l-23 -68 0 -2340 0 -2340 23 -68 c55 -158 187 -273 359 -313 55 -13
104 -15 263 -10 318 10 2169 64 2940 86 393 11 774 22 845 25 72 2 222 7 335
10 522 14 1357 37 2130 60 465 14 1005 29 1200 35 195 5 429 12 520 15 331 11
3482 102 3835 110 121 3 261 7 310 10 50 2 180 7 290 10 1014 28 3157 89 3675
105 491 15 1956 58 2400 70 206 5 524 14 705 20 182 5 431 12 555 15 124 3
279 7 345 10 66 3 203 7 305 10 102 3 424 12 715 20 1583 45 2765 80 3095 90
85 3 706 21 1380 40 942 27 1240 39 1289 50 180 42 311 156 379 331 l27 69 2
2400 c1 2605 4 2466 -53 2583 -33 67 -122 159 -194 200 -110 63 -155 67 -563
54 -199 -7 -448 -15 -553 -19 l-191 -6 -6 24 c-4 13 -7 48 -7 77 l0 52 -87 -1
c-49 -1 -360 -12 -693 -24z m1996 -195 c106 -37 189 -115 242 -227 l27 -58 3
-2399 c2 -2609 6 -2451 -51 -2565 -33 -67 -125 -154 -198 -189 -101 -47 -117
-48 -734 -62 -247 -5 -499 -12 -560 -15 -60 -2 -195 -7 -300 -10 -298 -9
-2454 -72 -3590 -105 -1090 -32 -1405 -41 -2265 -65 -294 -8 -674 -19 -845
-25 -170 -5 -413 -12 -540 -15 -126 -3 -286 -7 -355 -10 -69 -3 -219 -7 -335
-10 -115 -3 -743 -21 -1395 -40 -652 -19 -1653 -48 -2225 -65 -572 -16 -1105
-32 -1185 -35 -80 -3 -318 -10 -530 -15 -212 -6 -527 -14 -700 -20 -173 -5
-427 -12 -565 -15 -137 -3 -284 -8 -325 -10 -41 -3 -255 -10 -475 -15 -483
-12 -906 -24 -1780 -50 -363 -11 -896 -27 -1185 -35 -289 -9 -1056 -31 -1705
-50 -649 -19 -1268 -37 -1375 -40 -679 -20 -1233 -35 -1415 -40 -115 -3 -273
-7 -350 -10 -77 -3 -311 -10 -520 -15 -209 -5 -445 -12 -525 -15 -149 -6 -638
-19 -1112 -31 -286 -8 -315 -5 -411 43 -102 51 -182 155 -206 271 -14 70 -16
4594 -1 4671 23 123 109 236 225 298 101 53 129 57 480 68 99 3 241 8 315 10
74 3 333 12 575 20 242 8 568 20 725 25 157 6 362 12 455 15 94 3 222 7 285
10 153 6 500 19 1550 55 481 17 1174 42 1540 55 366 13 666 22 667 21 2 -2 2
-630 1 -1397 -3 -1349 -4 -1392 -21 -1343 -47 136 -227 354 -372 451 -257 172
-564 225 -861 147 -222 -57 -439 -206 -582 -399 -264 -357 -213 -840 123
-1153 140 -131 276 -205 460 -252 102 -26 343 -36 450 -19 128 20 292 82 400
151 79 51 193 158 254 238 118 156 166 284 181 475 5 67 10 782 10 1611 l0
1492 198 6 c108 4 224 9 257 11 33 2 146 7 250 10 105 3 375 12 600 20 226 8
491 17 590 20 99 3 295 10 435 15 140 5 336 12 435 15 99 3 234 8 300 10 66 3
185 7 265 10 201 7 1639 58 2835 100 550 19 1050 37 1110 40 61 3 259 10 440
15 182 5 377 12 435 15 58 3 260 10 450 15 190 6 379 12 420 15 41 2 174 7
295 10 121 3 324 10 450 15 127 5 304 12 395 15 91 3 545 19 1010 35 1622 57
2848 100 3270 115 234 8 567 19 740 25 173 5 362 12 420 15 58 3 193 7 300 10
107 4 310 10 450 16 140 5 390 14 555 19 165 6 543 19 840 30 297 11 680 24
850 30 543 17 618 20 698 25 l77 5 0 -1702 0 -1702 -29 45 c-36 56 -121 136
-187 178 -62 38 -191 86 -294 109 -106 24 -411 23 -532 -1 -200 -40 -395 -109
-537 -190 -226 -129 -401 -292 -496 -461 -220 -394 -28 -757 458 -868 75 -17
125 -21 272 -21 155 0 197 4 306 26 521 109 939 419 1064 792 15 46 17 194 15
1923 l-1 1872 48 0 c26 0 149 5 273 10 124 5 331 12 460 16 129 3 237 8 238
10 11 8 150 -10 198 -26z m-21564 -2861 c139 -30 288 -147 378 -297 51 -86
111 -244 136 -357 24 -109 24 -340 0 -450 -24 -112 -71 -247 -112 -326 -106
-202 -291 -329 -477 -329 -277 0 -518 242 -607 610 -35 143 -40 387 -10 529
29 141 71 246 140 350 150 223 338 315 552 270z"/>
<path d="M17702 9649 c-79 -40 -116 -118 -98 -214 8 -43 59 -103 103 -121 48
-21 137 -18 182 6 100 50 131 177 66 270 -53 76 -165 102 -253 59z"/>
<path d="M19950 9629 c-162 -21 -305 -38 -317 -39 -17 0 -23 -6 -23 -24 0 -22
6 -25 53 -31 139 -19 218 -81 258 -202 23 -66 23 -80 27 -530 2 -255 1 -463
-2 -463 -3 0 -39 23 -81 50 -174 117 -317 157 -520 146 -256 -14 -450 -99
-612 -269 -225 -237 -315 -611 -229 -950 79 -309 284 -525 581 -612 120 -35
318 -45 451 -21 121 21 241 59 338 108 43 22 79 38 80 36 1 -2 7 -43 13 -91 6
-48 12 -90 15 -92 5 -5 581 51 626 61 17 3 22 10 20 27 -3 19 -11 23 -67 29
-160 18 -247 114 -267 296 -4 31 -8 64 -10 72 -1 8 -3 583 -3 1278 -1 1195 -2
1262 -18 1261 -10 0 -151 -18 -313 -40z m-380 -1150 c81 -19 167 -69 224 -130
120 -129 152 -274 155 -706 3 -436 -43 -644 -174 -776 -142 -145 -356 -178
-540 -85 -83 43 -196 171 -257 293 -129 256 -156 607 -68 890 50 161 170 345
274 423 123 91 254 122 386 91z"/>
<path d="M2832 9578 c3 -21 11 -24 76 -31 114 -12 174 -40 247 -111 71 -70 97
-127 114 -250 7 -51 11 -405 11 -1031 0 -982 -3 -1058 -41 -1159 -46 -123
-164 -207 -322 -229 -80 -11 -87 -13 -87 -34 l0 -23 500 0 500 0 0 24 c0 21
-5 24 -68 29 -135 13 -222 56 -295 146 -52 64 -76 149 -88 306 -5 74 -8 534
-7 1065 l3 935 111 -135 c61 -74 133 -162 160 -196 27 -33 179 -220 338 -414
159 -194 321 -392 360 -440 125 -155 719 -880 891 -1090 61 -74 128 -156 149
-182 36 -45 41 -48 87 -48 l48 0 4 1223 c3 877 8 1239 16 1282 12 63 57 166
88 201 64 72 195 134 283 134 51 0 70 8 70 31 0 18 -16 19 -505 19 l-504 0 8
-22 c7 -20 18 -24 77 -30 201 -22 331 -143 365 -339 14 -80 25 -1789 12 -1789
-5 0 -41 39 -80 88 -312 388 -553 687 -638 792 -55 69 -213 265 -350 435 -240
299 -452 562 -618 768 l-79 97 -420 0 -419 0 3 -22z"/>
<path d="M12812 9578 c2 -18 11 -23 43 -25 176 -15 303 -91 360 -216 49 -106
50 -134 50 -1182 0 -1056 -1 -1079 -52 -1185 -60 -124 -207 -208 -365 -210
-34 0 -38 -3 -38 -26 l0 -25 988 4 c1065 4 1052 4 1222 58 234 76 397 248 462
486 30 112 30 316 0 427 -40 144 -99 250 -197 349 -121 123 -235 177 -481 227
-54 11 -99 22 -101 24 -2 2 25 13 59 26 151 54 257 125 331 218 97 124 139
248 138 412 0 113 -12 177 -45 258 -81 201 -259 333 -517 383 -94 18 -151 19
-980 19 l-880 0 3 -22z m1458 -54 c274 -52 452 -301 453 -634 0 -188 -55 -330
-172 -446 -122 -119 -312 -169 -663 -173 l-148 -2 0 634 c0 348 3 637 8 641
11 12 439 -4 522 -20z m109 -1330 c184 -27 300 -75 395 -163 229 -213 282
-686 105 -957 -60 -92 -157 -178 -254 -224 -138 -65 -187 -74 -390 -75 -164 0
-185 2 -236 23 -150 60 -226 173 -249 370 -5 48 -10 302 -10 565 l0 477 266 0
c190 0 297 -4 373 -16z"/>
<path d="M8947 9053 c-2 -5 -15 -39 -27 -78 -69 -213 -215 -395 -384 -478 -44
-22 -76 -43 -73 -50 2 -8 40 -13 115 -15 l112 -3 0 -647 c0 -677 7 -849 35
-920 23 -56 99 -123 171 -151 166 -63 468 -50 619 26 49 25 105 73 146 126 31
39 37 52 28 63 -13 15 -39 19 -39 5 0 -16 -105 -113 -145 -135 -34 -18 -57
-21 -145 -21 -95 0 -110 3 -156 27 -69 36 -120 98 -147 178 -21 64 -22 74 -25
758 l-3 692 275 0 276 0 0 40 0 40 -275 0 -275 0 0 275 0 275 -39 0 c-22 0
-42 -3 -44 -7z"/>
<path d="M10485 8530 c-258 -41 -508 -200 -646 -413 -140 -216 -180 -554 -97
-832 46 -157 145 -309 270 -413 82 -68 218 -135 343 -169 93 -24 115 -26 305
-26 180 -1 215 2 285 21 233 64 384 202 451 414 19 62 19 62 -11 72 -17 5 -23
0 -34 -31 -40 -114 -138 -236 -227 -281 -123 -62 -325 -83 -465 -47 -188 49
-360 185 -447 354 -97 187 -148 435 -127 625 l7 66 640 0 641 0 -8 72 c-22
229 -149 411 -358 513 -50 24 -121 51 -157 60 -79 19 -283 27 -365 15z m226
-60 c167 -57 270 -185 307 -380 24 -129 24 -139 -1 -145 -12 -4 -223 -5 -467
-3 l-445 3 3 30 c25 229 203 460 388 504 68 16 151 12 215 -9z"/>
<path d="M16060 8500 c-146 -21 -266 -39 -268 -39 -2 -1 -2 -11 0 -23 2 -18
14 -24 66 -34 80 -16 118 -39 159 -92 41 -54 51 -90 64 -231 14 -150 6 -1014
-11 -1090 -26 -124 -88 -190 -198 -215 -39 -9 -78 -16 -86 -16 -10 0 -16 -9
-16 -25 l0 -25 481 0 480 0 -3 22 c-2 19 -15 26 -66 40 -131 35 -196 88 -225
183 -18 60 -17 953 2 1055 31 172 83 292 152 355 50 45 76 55 144 55 79 0 129
-27 221 -118 71 -71 86 -81 127 -87 115 -17 190 51 173 158 -10 58 -46 101
-113 134 -54 26 -66 28 -178 28 -97 0 -134 -5 -195 -24 -149 -46 -238 -104
-320 -210 l-55 -71 -8 85 c-12 136 -30 220 -47 222 -8 0 -134 -16 -280 -37z"/>
<path d="M17640 8500 c-162 -21 -296 -39 -298 -39 -2 -1 -2 -11 0 -23 2 -18
14 -24 67 -34 81 -17 132 -51 167 -110 48 -81 53 -131 60 -524 7 -405 -6 -745
-30 -825 -30 -99 -99 -154 -220 -176 -36 -7 -66 -16 -66 -20 0 -4 -3 -14 -6
-23 -6 -14 40 -16 474 -16 476 0 480 0 485 21 3 11 0 22 -6 24 -7 2 -44 13
-83 24 -38 11 -85 31 -104 43 -50 34 -89 95 -101 158 -6 33 -12 363 -16 808
-4 547 -9 752 -17 751 -6 -1 -144 -18 -306 -39z"/>
<path d="M21428 8530 c-178 -32 -345 -136 -441 -273 -198 -283 -106 -619 222
-804 l63 -36 -90 -27 c-223 -66 -311 -151 -312 -300 0 -144 103 -263 273 -314
77 -23 100 -25 377 -30 311 -5 374 -12 463 -57 54 -27 113 -83 140 -134 18
-33 22 -56 22 -140 0 -88 -3 -107 -27 -158 -56 -118 -201 -220 -378 -263 -106
-27 -364 -27 -470 0 -241 59 -390 199 -390 365 0 92 17 139 71 193 37 37 56
48 93 53 74 11 115 -1 164 -51 57 -56 82 -58 82 -6 0 50 -36 119 -80 154 -111
88 -308 43 -402 -92 -103 -149 -80 -359 55 -494 119 -120 310 -180 607 -193
393 -16 705 76 853 254 128 154 154 388 64 573 -34 70 -133 162 -218 204 -145
71 -191 78 -594 86 -198 4 -374 12 -391 18 -83 27 -113 59 -114 117 0 55 29
98 83 123 69 33 124 42 332 57 257 19 358 51 503 160 238 179 267 496 70 776
-40 57 -40 60 -23 79 28 31 98 60 146 60 57 0 97 -25 149 -94 53 -71 83 -89
143 -90 43 -1 52 3 78 32 52 58 36 153 -36 207 -118 91 -328 66 -503 -58 l-42
-31 -38 23 c-61 37 -160 80 -220 96 -69 19 -220 27 -284 15z m230 -66 c87 -43
156 -147 193 -292 25 -97 26 -317 3 -430 -32 -155 -113 -273 -211 -306 -196
-67 -375 74 -429 339 -41 197 12 469 116 600 86 109 217 144 328 89z"/>
<path d="M23435 8530 c-255 -40 -501 -196 -640 -406 -47 -71 -96 -185 -121
-284 -27 -106 -27 -393 0 -495 93 -352 325 -576 676 -652 129 -27 434 -25 545
5 199 54 340 163 415 324 41 88 59 158 42 158 -6 0 -17 2 -24 5 -9 4 -20 -10
-32 -45 -38 -106 -136 -224 -223 -268 -86 -44 -171 -62 -292 -62 -137 -1 -207
17 -333 81 -246 126 -401 421 -413 784 -2 66 -1 137 2 158 l5 37 641 0 640 0
-7 70 c-21 228 -150 414 -359 515 -50 24 -121 51 -157 60 -79 19 -283 27 -365
15z m274 -79 c127 -63 203 -156 246 -301 18 -60 37 -191 29 -199 -7 -7 -881
-14 -910 -7 -20 5 -21 10 -13 52 28 149 79 253 173 349 109 111 192 147 332
141 65 -3 92 -9 143 -35z"/>
<path d="M11650 7635 l0 -155 488 0 487 0 0 155 0 155 -487 0 -488 0 0 -155z"/>
<path d="M27594 6954 c-89 -44 -57 -174 43 -174 102 0 132 137 38 176 -42 17
-43 17 -81 -2z"/>
</g>
</svg>
